{
  "accessors": [
    {
      "bufferView": 2,
      "componentType": 5126,
      "count": 42455,
      "max": [
        55.908283233642578,
        59.881320953369141,
        31.99737548828125
      ],
      "min": [
        -66.455123901367188,
        -40.804725646972656,
        -94.247848510742188
      ],
      "type": "VEC3"
    },
    {
      "bufferView": 2,
      "byteOffset": 509460,
      "componentType": 5126,
      "count": 42455,
      "max": [
        1,
        1,
        1
      ],
      "min": [
        -1,
        -1,
        -1
      ],
      "type": "VEC3"
    },
    {
      "bufferView": 1,
      "componentType": 5126,
      "count": 42455,
      "max": [
        0.996662437915802,
        1.0026605129241943
      ],
      "min": [
        -0.009775698184967041,
        0.00064601749181747437
      ],
      "type": "VEC2"
    },
    {
      "bufferView": 0,
      "componentType": 5125,
      "count": 134976,
      "max": [
        42454
      ],
      "min": [
        0
      ],
      "type": "SCALAR"
    },
    {
      "bufferView": 2,
      "byteOffset": 1018920,
      "componentType": 5126,
      "count": 1913,
      "max": [
        8.9819412231445312,
        100.18994140625,
        61.443943023681641
      ],
      "min": [
        -143.61106872558594,
        -37.032196044921875,
        -53.070407867431641
      ],
      "type": "VEC3"
    },
    {
      "bufferView": 2,
      "byteOffset": 1041876,
      "componentType": 5126,
      "count": 1913,
      "max": [
        0.99893820285797119,
        1,
        0.9970322847366333
      ],
      "min": [
        -0.99969077110290527,
        -0.94040203094482422,
        -0.99910140037536621
      ],
      "type": "VEC3"
    },
    {
      "bufferView": 1,
      "byteOffset": 339640,
      "componentType": 5126,
      "count": 1913,
      "max": [
        0.99243664741516113,
        0.97999143600463867
      ],
      "min": [
        0.019096648320555687,
        0.024883914738893509
      ],
      "type": "VEC2"
    },
    {
      "bufferView": 1,
      "byteOffset": 354944,
      "componentType": 5126,
      "count": 1913,
      "max": [
        0.99243664741516113,
        0.97999143600463867
      ],
      "min": [
        0.019096648320555687,
        0.024883914738893509
      ],
      "type": "VEC2"
    },
    {
      "bufferView": 0,
      "byteOffset": 539904,
      "componentType": 5125,
      "count": 7266,
      "max": [
        1912
      ],
      "min": [
        0
      ],
      "type": "SCALAR"
    },
    {
      "bufferView": 2,
      "byteOffset": 1064832,
      "componentType": 5126,
      "count": 4,
      "max": [
        16.397712707519531,
        22.543861389160156,
        0
      ],
      "min": [
        -13.086066246032715,
        -18.940361022949219,
        -6.9704924499092158e-07
      ],
      "type": "VEC3"
    },
    {
      "bufferView": 2,
      "byteOffset": 1064880,
      "componentType": 5126,
      "count": 4,
      "max": [
        1.8299397552823393e-08,
        3.7969583033259369e-09,
        1
      ],
      "min": [
        1.8299397552823393e-08,
        3.7969583033259369e-09,
        1
      ],
      "type": "VEC3"
    },
    {
      "bufferView": 1,
      "byteOffset": 370248,
      "componentType": 5126,
      "count": 4,
      "max": [
        0.71051204204559326,
        0.99950003623962402
      ],
      "min": [
        0.00050000002374872565,
        0.00050000002374872565
      ],
      "type": "VEC2"
    },
    {
      "bufferView": 1,
      "byteOffset": 370280,
      "componentType": 5126,
      "count": 4,
      "max": [
        0.71051204204559326,
        0.99950003623962402
      ],
      "min": [
        0.00050000002374872565,
        0.00050000002374872565
      ],
      "type": "VEC2"
    },
    {
      "bufferView": 0,
      "byteOffset": 568968,
      "componentType": 5125,
      "count": 6,
      "max": [
        3
      ],
      "min": [
        0
      ],
      "type": "SCALAR"
    }
  ],
  "asset": {
    "extras": {
      "author": "GiaHanLam (https://sketchfab.com/GiaHanLam)",
      "license": "CC-BY-4.0 (http://creativecommons.org/licenses/by/4.0/)",
      "source": "https://sketchfab.com/3d-models/welcome-to-xiao-bao-26a86e1b102948bfba50248eff1e4bfa",
      "title": "Welcome to Xiao Bao!"
    },
    "generator": "Sketchfab-8.70.0",
    "version": "2.0"
  },
  "bufferViews": [
    {
      "buffer": 0,
      "byteLength": 568992,
      "byteOffset": 0,
      "name": "floatBufferViews",
      "target": 34963
    },
    {
      "buffer": 0,
      "byteLength": 370312,
      "byteOffset": 568992,
      "byteStride": 8,
      "name": "floatBufferViews",
      "target": 34962
    },
    {
      "buffer": 0,
      "byteLength": 1064928,
      "byteOffset": 939304,
      "byteStride": 12,
      "name": "floatBufferViews",
      "target": 34962
    }
  ],
  "buffers": [
    {
      "byteLength": 2004232,
      "uri": "bao.bin"
    }
  ],
  "images": [
    {
      "uri": "bao/Material_2_baseColor.png"
    },
    {
      "uri": "bao/Material_2_emissive.png"
    },
    {
      "uri": "bao/Material_14_baseColor.png"
    },
    {
      "uri": "bao/Material_14_emissive.png"
    },
    {
      "uri": "bao/Material_15_baseColor.png"
    }
  ],
  "materials": [
    {
      "doubleSided": true,
      "emissiveFactor": [
        1,
        1,
        1
      ],
      "emissiveTexture": {
        "index": 1,
        "texCoord": 0
      },
      "name": "Material_2",
      "pbrMetallicRoughness": {
        "baseColorFactor": [
          1,
          1,
          1,
          1
        ],
        "baseColorTexture": {
          "index": 0,
          "texCoord": 0
        },
        "metallicFactor": 0,
        "roughnessFactor": 0.90000000000000002
      }
    },
    {
      "alphaMode": "BLEND",
      "doubleSided": true,
      "emissiveFactor": [
        1,
        1,
        1
      ],
      "emissiveTexture": {
        "index": 3,
        "texCoord": 0
      },
      "name": "Material_14",
      "pbrMetallicRoughness": {
        "baseColorFactor": [
          1,
          1,
          1,
          1
        ],
        "baseColorTexture": {
          "index": 2,
          "texCoord": 0
        },
        "metallicFactor": 0,
        "roughnessFactor": 0.90000000000000002
      }
    },
    {
      "alphaMode": "BLEND",
      "doubleSided": true,
      "emissiveFactor": [
        0,
        0,
        0
      ],
      "name": "Material_15",
      "pbrMetallicRoughness": {
        "baseColorFactor": [
          1,
          1,
          1,
          1
        ],
        "baseColorTexture": {
          "index": 4,
          "texCoord": 0
        },
        "metallicFactor": 0,
        "roughnessFactor": 0.90000000000000002
      }
    }
  ],
  "meshes": [
    {
      "name": "House_Material #2_0",
      "primitives": [
        {
          "attributes": {
            "NORMAL": 1,
            "POSITION": 0,
            "TEXCOORD_0": 2
          },
          "indices": 3,
          "material": 0,
          "mode": 4
        }
      ]
    },
    {
      "name": "Plants_Material #14_0",
      "primitives": [
        {
          "attributes": {
            "NORMAL": 5,
            "POSITION": 4,
            "TEXCOORD_0": 6,
            "TEXCOORD_1": 7
          },
          "indices": 8,
          "material": 1,
          "mode": 4
        }
      ]
    },
    {
      "name": "Smoke_Material #15_0",
      "primitives": [
        {
          "attributes": {
            "NORMAL": 10,
            "POSITION": 9,
            "TEXCOORD_0": 11,
            "TEXCOORD_1": 12
          },
          "indices": 13,
          "material": 2,
          "mode": 4
        }
      ]
    }
  ],
  "nodes": [
    {
      "children": [
        1
      ],
      "name": "RootNode (gltf orientation matrix)",
      "rotation": [
        -0.70710678118654746,
        -0,
        -0,
        0.70710678118654757
      ]
    },
    {
      "children": [
        2
      ],
      "name": "RootNode (model correction matrix)"
    },
    {
      "children": [
        3
      ],
      "matrix": [
        1,
        0,
        0,
        0,
        0,
        0,
        1,
        0,
        0,
        -1,
        0,
        0,
        0,
        0,
        0,
        1
      ],
      "name": "93bd6a596fa74d06af71f581139a9a8b.fbx"
    },
    {
      "children": [
        4,
        7,
        9
      ],
      "name": "RootNode"
    },
    {
      "children": [
        5
      ],
      "matrix": [
        1.1080210208892822,
        0,
        0,
        0,
        0,
        0.99999999999998668,
        1.6292068494294582e-07,
        0,
        0,
        -1.4852029187199303e-07,
        0.91161102056502086,
        0,
        0,
        1.2618646621704102,
        1.5117623206606368e-06,
        1
      ],
      "name": "House"
    },
    {
      "children": [
        6
      ],
      "matrix": [
        1,
        0,
        -0,
        0,
        0,
        1,
        0,
        0,
        0,
        0,
        1,
        0,
        0,
        22.699619293212891,
        25.381685256958008,
        1
      ],
      "name": ""
    },
    {
      "mesh": 0,
      "name": "House_Material #2_0"
    },
    {
      "children": [
        8
      ],
      "matrix": [
        1,
        0,
        0,
        0,
        0,
        0.99999999999998668,
        1.6292068494294582e-07,
        0,
        0,
        -1.6292068494294582e-07,
        0.99999999999998668,
        0,
        43.479053497314453,
        17.659862518310547,
        7.7193709557832335e-07,
        1
      ],
      "name": "Plants"
    },
    {
      "mesh": 1,
      "name": "Plants_Material #14_0"
    },
    {
      "children": [
        10
      ],
      "matrix": [
        1.6292068460987963e-07,
        0,
        0.99999999999998668,
        0,
        -4.3711388225504991e-08,
        0.999999999999999,
        7.1214892959639279e-15,
        0,
        -0.99999999999998579,
        -4.3711388225505573e-08,
        1.6292068460987963e-07,
        0,
        -1.3911383121012477e-06,
        83.746078491210938,
        20.084327697753906,
        1
      ],
      "name": "Smoke"
    },
    {
      "mesh": 2,
      "name": "Smoke_Material #15_0"
    }
  ],
  "samplers": [
    {
      "magFilter": 9729,
      "minFilter": 9987,
      "wrapS": 10497,
      "wrapT": 10497
    }
  ],
  "scene": 0,
  "scenes": [
    {
      "name": "OSG_Scene",
      "nodes": [
        0
      ]
    }
  ],
  "textures": [
    {
      "sampler": 0,
      "source": 0
    },
    {
      "sampler": 0,
      "source": 1
    },
    {
      "sampler": 0,
      "source": 2
    },
    {
      "sampler": 0,
      "source": 3
    },
    {
      "sampler": 0,
      "source": 4
    }
  ]
}

