<?xml version="1.0" encoding="utf-8"?>
<!-- Generator: Adobe Illustrator 22.0.1, SVG Export Plug-In . SVG Version: 6.00 Build 0)  -->
<svg version="1.1" id="圖層_1" xmlns="http://www.w3.org/2000/svg" xmlns:xlink="http://www.w3.org/1999/xlink" x="0px" y="0px"
	 viewBox="0 0 227.9 149.2" style="enable-background:new 0 0 227.9 149.2;" xml:space="preserve">
<style type="text/css">
	.st0{enable-background:new    ;}
</style>
<text transform="matrix(1 0 0 1 -126 -373)" style="font-family:'ArialMT'; font-size:12px;"> </text>
<g class="st0">
	<path d="M59.1,129c-0.6,0-0.9,0-1.5,0c-0.9-0.3-1.5-0.9-2.1-1.5c-0.6-0.9-1.2-2.4-1.5-4.1c-0.9-4.7-1.2-10.9,0-18.9
		c0.6-4.1,1.5-8,2.4-12.4c1.2-4.1,2.7-8.3,4.4-12.4c1.8-4.1,3.8-7.7,6.5-10.9c-0.6-3.3-1.2-6.2-1.8-9.2c-0.6-2.1-0.9-4.1-1.5-5.9
		c-0.9-3-1.8-5-2.4-6.5c-0.3-0.6-0.9-1.2-1.2-1.5s-0.3-0.3-0.6-0.3h-0.3c-0.3,0-0.6,1.5-1.5,4.1c-0.3,1.2-0.6,3-1.2,5.3
		c-1.2,6.2-2.7,12.1-4.7,17.2c-1.8,4.4-3.5,8.3-5.9,11.2c-1.2,1.5-2.4,2.7-3.8,3.8c-1.8,1.5-3.5,2.1-5,2.7c-2.4,0.6-4.7,0.3-7.1-0.6
		c-2.1-0.9-4.1-2.4-5.9-4.7c-2.7-3.5-4.7-8.3-6.2-14.5c-1.2-5.9-1.8-12.1-1.8-18.9c0.3-5.3,0.9-10.6,2.1-16c1.2-5.3,3-10.1,5-14.2
		c0.3-0.3,0.6-0.6,0.9-0.6h0.3c0.3,0.3,0.6,0.6,0.6,1.2c0,0.3,0,0.3,0,0.6c0,2.1,0,3.5-0.3,4.4c-0.3,0.9-0.6,1.8-0.9,2.1
		C23.9,28.7,23.3,29,23,29h-0.3c-1.8,5.9-3,12.1-3.8,18.6c-0.6,8-0.3,15.4,1.2,21.9c0.6,2.4,1.2,4.7,2.1,7.1
		c0.9,2.4,2.1,4.7,3.5,6.5c1.5,2.1,3.3,3.3,5.3,4.1c1.8,0.6,3.8,0.9,5.6,0.3c0.3,0,0.6,0,0.9-0.3c3.5-1.2,6.2-3.3,8.3-5.9
		C49,77,51.7,71,53.2,63.9c1.2-4.7,2.1-9.8,3-15.1c0.3-1.8,0.6-3,0.9-4.1c0.3-1.2,0.9-1.8,1.8-2.1c0.3,0,0.9,0,1.2,0
		c0.9,0.3,1.8,1.2,2.4,2.7c0.9,1.8,1.8,3.8,2.7,6.8c0.6,2.1,1.2,4.1,1.8,6.5c0.6,2.1,0.9,4.4,1.5,6.8c1.5-1.5,3-3.3,4.7-4.7
		c1.8-1.5,3.5-2.7,5.3-3.8h0.3c0.3,0,0.3,0,0.6,0s0.3,0.3,0.3,0.3v0.3c0,0.3-0.3,0.3-0.6,0.6c-4.1,2.4-7.7,5-10.4,8.6l0.3,1.8
		c0.3,2.7,0.6,4.7,0.9,6.2c0.6,5.9,0.9,12.1,0.6,18.3c-0.3,6.2-0.9,12.1-2.1,17.7c-1.2,5.6-3.3,10.4-5.9,14.8l0,0
		C61.4,127.8,60.3,128.7,59.1,129z M58.5,127c0.9-0.3,1.8-0.9,2.7-2.1c2.7-3.8,4.4-8.6,5.6-13.9s2.1-11.2,2.1-17.2
		c0.3-6.2,0-12.1-0.6-18c-0.3-2.7-0.6-4.7-0.6-5.9c-2.7,3.8-5,7.4-6.5,11.2c-1.8,3.8-3,7.4-3.8,11.2c-0.9,3.8-1.8,7.7-2.4,11.8
		c-0.9,6.8-0.9,12.4,0.3,17.7c0,0.6,0.3,1.2,0.6,1.8c0.3,0.6,0.3,0.9,0.6,1.5s0.6,0.9,0.6,1.2C57.3,127,57.9,127.3,58.5,127
		L58.5,127z"/>
	<path d="M83.6,68.7c-0.3,0-0.9,0-1.2,0c-1.2-0.6-2.1-1.8-2.4-4.1c-0.3-1.5-0.6-4.7-0.9-9.8l-0.3-0.3c0-0.6,0-0.9,0.3-1.5l0.3-0.3
		c0.3-0.3,0.6-0.6,0.9-0.6c0.3,0,0.6,0,0.9,0.3c0.3,0,0.3,0.3,0.3,0.3v3.8c0,3.3,0.3,5.6,0.6,7.4c0.6,2.1,1.2,3,2.1,3
		c0.6,0,1.5-0.9,2.1-2.4c1.5-3.5,2.7-7.7,3.5-12.4c0-2.4,0.6-3.5,2.1-3.8c0.3,0,0.6,0,0.6,0c0.3,0,0.3,0.3,0.6,0.6
		c0,0.3,0,0.9,0,1.5s0,1.8,0.3,3.5c0,0.9,0.3,1.5,0.3,2.1c0.9,3.5,2.4,5,4.7,4.7h0.3c1.2-0.3,2.4-1.2,4.1-3c1.2-1.5,2.1-3,3-4.7
		c0-0.3,0.3-0.3,0.3-0.3s0,0,0.3,0c0,0,0.3,0,0.3,0.3l0,0c0,0,0,0.3,0,0.6l-0.3,0.6c-0.6,1.5-1.5,2.7-2.7,4.1l-0.6,0.6
		c-1.8,2.1-3.5,3.5-5.3,3.8c-0.6,0-1.2,0-2.1,0c-1.8-0.6-3-1.8-3.8-3.5c-0.3-0.9-0.6-2.1-0.9-3.3c0-0.3-0.3-0.9-0.3-1.2v-0.3v-0.3
		c0,0-0.3,0.6-0.3,1.8c-0.3,1.2-0.9,3.8-2.4,8.3C86.9,66.3,85.4,68.4,83.6,68.7z"/>
	<path d="M109.4,62.8c-0.3,0-0.6,0-0.9-0.3c-0.6-0.3-1.2-0.9-1.5-1.8c-0.3-0.6-0.3-0.9-0.6-1.5c0-0.3,0-0.6-0.3-0.9
		c-0.6-3.3-0.9-6.5-0.6-9.5c0-3,0.3-5.3,0.6-6.5c0.3-0.3,0.6-0.3,0.6-0.3c0.3,0,0.3,0,0.6,0c0.3,0,0.3,0,0.3,0s0.3,0,0.3,0.3l0,0
		c0,0.3,0.3,0.3,0.3,0.6c0.3,0.9,0.3,2.4,0,5c0,1.5-0.3,3-0.3,4.7s0,3.5,0.3,5.3c0,0.3,0,0.6,0.3,0.9v0.6c0,0.6,0.3,0.9,0.6,0.9
		c0.3,0,0.9-1.5,1.5-4.1c0.3-1.8,0.6-3.8,0.9-5.9c0.3-1.5,0.6-3,0.9-4.4c0.9-3.8,2.1-5.9,3.3-6.5c0.3,0,0.9,0,1.2,0
		c0.3,0,0.6,0.3,0.9,0.6c0.9,0.9,1.8,3,2.7,6.2c0.6,2.1,1.2,3.5,1.5,4.4l0,0c0.3,0.6,0.3,0.6,0.6,0.6c0,0,0.3-0.3,0.3-0.9
		c0-0.3,0.3-1.2,0.6-2.4c0-0.6,0.3-1.2,0.3-1.8c0.3-1.2,0.9-1.8,1.5-2.1h0.3c0.9-0.3,1.5,0,2.1,0.3c0.6,0.6,1.2,1.2,1.8,1.8l0.6,0.9
		c0.6,0.6,1.2,1.2,1.8,1.8c0.6,0.6,1.2,0.9,1.8,0.6c1.2-0.3,2.4-1.2,3.8-2.7s2.7-3,4.1-4.7s2.4-3.5,3.3-5c0.3-0.3,0.6-0.3,0.6-0.6
		c0.3,0,0.3,0,0.6,0c0.6,0.3,0.9,0.6,1.2,1.2c0,0.3,0,0.6,0,0.9c0,0.9,0,1.8,0,3c0,2.4,0,4.1,0.3,5.3c0.3,0.6,0.3,1.2,0.6,1.5h0.3
		c0.3,0,0.3-0.3,0.6-0.9c0.3-0.6,0.6-1.2,0.9-2.1c0.3-0.9,0.6-1.8,0.6-2.4c0.6-1.8,0.9-3.5,1.5-5c0.6-2.1,1.5-3.3,2.7-3.8h0.3
		c0.6,0,0.9,0,1.5,0c0.9,0.6,1.8,1.5,2.7,3.3c0.3,0.9,0.9,1.8,1.2,2.4c0.3,0.6,0.9,0.9,1.2,0.9c0,0,0,0,0.3,0s0.3-0.3,0.6-0.9
		c0.3-0.6,0.6-1.2,0.9-2.1c0.3-0.9,0.6-1.5,0.9-2.4c0.6-0.9,0.9-1.5,1.5-1.5c0.3,0,0.9,0,1.2,0.3c0.9,0.3,1.5,1.2,2.1,2.7
		c0.3,0.9,0.9,1.8,1.2,2.1c0.6,0.9,1.2,1.5,1.8,1.5c0.3,0,0.6,0,0.6,0c0.6,0,1.2-0.3,2.1-0.9c1.5-0.9,3.3-2.4,5-4.4
		c0.3-0.3,0.6-0.6,0.6-0.6l0,0c0,0,0.3,0,0.3,0.3s0,0.3-0.3,0.6c-1.8,2.1-3.5,3.5-5.3,4.7c-0.9,0.6-1.5,0.9-2.4,1.5
		c-0.3,0.3-0.6,0.3-1.2,0.3c-2.1,0.6-3.8-0.9-5-3.8c-0.3-0.9-0.6-1.5-0.9-1.8c-0.3-0.6-0.6-0.6-0.9-0.6s-0.3,0.3-0.6,0.6
		c-0.3,0.3-0.6,1.5-1.5,3.3c-0.3,0.9-0.9,1.8-1.2,2.1c-0.3,0.3-0.6,0.6-0.9,0.6h-0.3c-0.9,0-1.8-0.6-2.4-1.5
		c-0.6-0.9-0.9-1.8-1.2-2.4c-0.6-1.2-0.9-1.8-1.2-2.1h-0.3c-0.6,0-0.9,0.6-1.2,1.2c-0.6,0.9-1.2,2.7-1.8,5c0,0.3-0.3,0.9-0.3,1.2
		c-0.3,0.6-0.3,1.5-0.6,2.1c-0.3,1.2-0.6,2.1-0.9,3c-0.6,1.2-1.2,1.8-2.1,2.1c-0.3,0-0.9,0-1.2-0.3c-0.6-0.6-1.2-1.2-1.5-1.8
		c0-0.3-0.3-0.9-0.3-1.2s-0.3-0.9-0.3-1.2c0-1.5-0.3-3,0-4.4v-1.2c0-0.3,0-0.6,0-0.6c0-0.3,0-0.3-0.3-0.3c0,0,0,0-0.3,0
		c-0.9,0.9-1.8,2.1-3.3,3.8c-3,3.8-5,5.9-6.5,6.8c-0.3,0.3-0.9,0.3-1.2,0.6c-0.3,0-0.6,0-0.9,0c-0.9,0-1.8-0.6-2.7-1.2
		c-0.6-0.6-1.5-1.2-1.8-2.1l-0.3-0.3c-0.3-0.3-0.3-0.6-0.6-0.9c-0.6-0.9-1.2-1.5-1.5-1.5H125c-0.3,0-0.6,0.3-0.6,1.2
		c0,2.1,0,3.3,0,4.4c0,0.6,0,0.9-0.3,1.5c0,0.6-0.3,1.2-0.6,1.8c-0.3,0.3-0.6,0.3-0.6,0.3h-0.3c-0.6,0-1.2-0.3-1.8-0.9
		c-0.6-0.9-1.2-3-2.1-5.6c-0.6-2.1-1.2-3.8-1.8-5v-0.3c-0.3-0.6-0.6-1.2-0.9-1.2l0,0c-0.3,0-0.6,0.3-0.9,1.2c-0.6,1.2-0.9,3-1.5,5.3
		c-0.3,1.2-0.6,2.7-0.9,4.4c-0.6,3.8-1.2,6.2-1.5,7.4C111.1,61.3,110.6,62.2,109.4,62.8L109.4,62.8z"/>
	<path d="M186.6,90c-0.9,0.3-1.8,0.3-2.7,0c-1.2-0.3-2.4-1.2-3-2.4c-0.6-0.9-1.2-2.4-1.5-3.8c-0.6-2.1-0.6-4.7-0.3-7.7
		c0.3-3.5,1.2-7.4,3-11.8c3.3-8.3,7.7-16.6,13.3-24.6c-1.2-3.5-2.4-6.2-3.3-8c-0.3-0.6-0.6-0.6-0.6-0.6c-0.3,0-0.6,0.6-0.9,1.8
		c-0.3,0.6-0.3,1.5-0.6,2.4c-0.3,0.9-0.6,1.8-0.6,2.7c-0.3,0.9-0.6,1.8-0.9,2.4c-0.3,0.9-0.6,1.5-1.2,2.1c-0.3,0.6-0.9,1.2-1.8,1.2
		l0,0c-0.9,0.3-1.5,0-2.1-0.6c-0.9-0.9-1.8-1.8-2.1-3c-0.9-0.6-0.9-0.9-0.9-1.5c-0.3-0.6-0.3-1.5-0.3-2.1c0-1.2,0-2.1,0-3v-1.2
		c0-0.3,0-0.3,0.3-0.6h0.3c0,0,0.3,0,0.6,0s0.6,0.3,0.9,0.6c0.3,0.6,0.6,1.2,0.6,1.8c0,0.6,0.3,1.2,0,1.5c0,0.6-0.3,0.6-0.6,0.9l0,0
		c0,0.6,0,1.2,0.3,1.8c0,0.3,0.3,0.9,0.6,1.8s0.6,1.2,1.2,1.5c0.6,0.3,0.9,0.3,1.5,0.3c0.9-0.3,1.5-0.9,1.8-2.4
		c0.3-0.9,0.6-1.5,0.6-2.1c0.3-0.9,0.6-1.8,0.6-2.7c0.6-1.8,0.9-3,0.9-3.8c0-0.6,0-0.9,0.3-1.2c0-0.3,0.3-0.6,0.6-0.9
		c0,0,0.3-0.3,0.6-0.3c0.3,0,0.3,0,0.6,0c0.9,0.6,1.8,1.8,2.7,4.1c0.6,1.2,1.2,3,2.1,5.3c2.7-3,5.3-5.3,8-7.1l0.3-0.3h0.3
		c0,0,0.3,0,0.3,0.3s0,0.3-0.3,0.6c-3.3,2.1-5.9,4.4-8.3,7.4l0.3,0.6l0.6,2.1c0.6,2.1,1.2,4.4,1.8,7.1c0.3,1.2,0.6,3,0.9,5
		c0.3,2.1,0.6,4.7,0.6,7.7s-0.3,5.9-0.9,8.6c-1.5,5.3-3.3,10.1-5.6,13.3s-5,5.6-7.4,6.5C187.2,90,186.9,90,186.6,90z M185.7,87.9
		c0.3,0,0.6-0.3,0.9-0.3c1.2-0.6,2.7-1.5,4.1-3s3-3.5,4.4-6.2c1.5-2.7,2.4-5.6,3.3-9.2c0.9-3.8,0.9-8,0.3-12.4
		c-0.3-3-0.9-5.6-1.5-8.6c-0.3-1.5-0.9-3.5-1.5-5.6l-0.3-1.8c-2.4,3-4.4,6.5-6.5,10.1c-2.7,4.7-4.7,9.2-6.5,13.9
		c-1.8,4.7-2.7,8.6-3,11.5c0,2.4,0,4.4,0.3,6.2c0,0,0.3,0.6,0.3,1.5c0.3,0.9,0.6,1.8,1.2,2.7c0.3,0.6,1.2,1.2,1.8,1.5
		C184.2,88.2,184.8,88.2,185.7,87.9z"/>
</g>
</svg>
