<?xml version="1.0" encoding="utf-8"?>
<!-- Generator: Adobe Illustrator 22.0.1, SVG Export Plug-In . SVG Version: 6.00 Build 0)  -->
<svg version="1.1" id="圖層_2" xmlns="http://www.w3.org/2000/svg" xmlns:xlink="http://www.w3.org/1999/xlink" x="0px" y="0px"
	 viewBox="0 0 227.9 149.2" style="enable-background:new 0 0 227.9 149.2;" xml:space="preserve">
<g>
	<path d="M56.5,132c-0.5,0.1-0.9,0.1-1.4,0c-0.9-0.3-1.6-0.8-2.1-1.6c-0.6-1-1.2-2.3-1.5-4.1c-1-4.7-1-11,0.1-18.9
		c0.5-4,1.4-8.1,2.5-12.3c1.1-4.2,2.6-8.3,4.4-12.3c1.8-4,4-7.7,6.5-11c-0.5-3.3-1-6.3-1.6-9.1c-0.5-2.2-1-4.2-1.5-6.1
		c-0.9-2.9-1.7-5.1-2.3-6.5c-0.4-0.7-0.8-1.2-1.1-1.4c-0.2-0.2-0.4-0.3-0.5-0.2l-0.2,0.1c-0.2,0.1-0.7,1.5-1.4,4.2
		c-0.3,1.2-0.7,3-1.2,5.4c-1.2,6.2-2.8,12-4.7,17.2c-1.7,4.6-3.7,8.3-6.1,11.1c-1.2,1.4-2.5,2.7-4,3.8c-1.7,1.3-3.4,2.2-5.2,2.5
		c-2.5,0.5-4.8,0.3-7-0.5c-2.2-0.9-4.1-2.4-5.8-4.6c-2.7-3.5-4.7-8.4-6-14.6c-1.2-5.8-1.7-12.2-1.5-19c0.2-5.4,0.9-10.7,2.1-15.9
		s2.9-10,5.1-14.3c0.3-0.4,0.5-0.6,0.8-0.7c0.1,0,0.3,0,0.4,0.1c0.3,0.2,0.5,0.5,0.6,1.1c0,0.2,0.1,0.3,0.1,0.5c0,2,0,3.5-0.2,4.4
		c-0.2,1-0.5,1.7-0.9,2c-0.4,0.3-0.8,0.5-1.3,0.6l-0.2,0c-1.9,5.8-3.2,12-3.8,18.6c-0.8,8-0.5,15.3,0.9,21.9
		c0.5,2.3,1.2,4.7,2.1,7.2s2.1,4.7,3.6,6.6c1.5,2,3.3,3.4,5.3,4.2c1.8,0.8,3.7,0.9,5.7,0.5c0.3-0.1,0.6-0.1,0.8-0.2
		c3.4-1.1,6.2-3.1,8.3-5.9c3.3-4.5,5.9-10.2,7.6-17.3c1.2-4.7,2.3-9.8,3.2-15.1c0.3-1.6,0.6-3,0.9-4.1c0.4-1.1,0.9-1.8,1.7-2
		c0.4-0.1,0.8-0.1,1.1,0.1c1,0.4,1.8,1.3,2.5,2.6c0.8,1.6,1.7,4,2.5,6.9c0.6,2,1.1,4.1,1.6,6.5c0.5,2.2,0.9,4.5,1.3,7
		c1.4-1.6,3-3.1,4.8-4.6c1.8-1.5,3.6-2.8,5.4-3.7c0.1-0.1,0.2-0.1,0.3-0.1c0.2,0,0.4,0,0.5,0.1c0.1,0.1,0.2,0.2,0.3,0.4
		c0,0.1,0,0.2,0,0.3c0,0.2-0.2,0.3-0.6,0.5c-4.3,2.3-7.8,5.1-10.5,8.5l0.2,1.7c0.4,2.6,0.6,4.7,0.8,6.2c0.6,5.9,0.7,12,0.5,18.2
		c-0.2,6.2-1,12.1-2.3,17.7s-3.4,10.5-6.1,14.6l0,0C58.9,130.8,57.7,131.8,56.5,132z M55.8,130c0.9-0.2,1.8-0.9,2.6-2.1
		c2.6-3.9,4.5-8.5,5.8-13.9c1.3-5.4,2-11.2,2.3-17.3c0.2-6.1,0.1-12.1-0.5-17.9c-0.3-2.7-0.5-4.6-0.6-5.9c-2.7,3.7-5,7.5-6.6,11.2
		c-1.7,3.7-3,7.5-3.9,11.3c-0.9,3.8-1.7,7.7-2.3,11.8c-1,6.7-0.9,12.6,0.2,17.7c0.1,0.7,0.3,1.3,0.5,1.9c0.2,0.5,0.4,1,0.7,1.6
		c0.3,0.5,0.5,0.9,0.7,1.2C54.8,129.9,55.2,130.1,55.8,130L55.8,130z"/>
	<path d="M81.6,71.7c-0.4,0.1-0.8,0.1-1.2,0c-1.1-0.5-1.9-1.8-2.4-4.1c-0.3-1.4-0.6-4.7-0.9-9.9c-0.1-0.1-0.2-0.3-0.2-0.4
		c-0.1-0.5,0-0.9,0.3-1.4l0.2-0.2c0.3-0.3,0.5-0.5,0.8-0.6c0.4-0.1,0.7,0,1,0.2c0.2,0.1,0.3,0.3,0.3,0.4l0,3.7
		c0,3.2,0.2,5.7,0.6,7.4c0.4,2.1,1.1,3,1.9,2.8c0.6-0.1,1.4-0.9,2.2-2.3c1.5-3.5,2.7-7.6,3.6-12.5c0.1-2.3,0.7-3.6,2-3.9
		c0.2,0,0.5-0.1,0.7,0c0.2,0.1,0.4,0.3,0.5,0.7c0.1,0.4,0.1,0.9,0,1.4c0,0.7,0.1,1.8,0.3,3.5c0.1,0.9,0.2,1.6,0.3,2.1
		c0.8,3.6,2.4,5.2,4.8,4.7l0.2,0c1.1-0.2,2.5-1.3,4-3.1c1.2-1.5,2.2-3,3-4.6c0.1-0.2,0.3-0.4,0.4-0.4c0,0,0.1,0,0.2,0
		c0.1,0,0.2,0,0.3,0.2c0,0,0.1,0.1,0.1,0.1c0,0.1,0,0.3-0.1,0.5l-0.4,0.7c-0.7,1.3-1.6,2.7-2.8,4l-0.5,0.6c-1.7,2.1-3.5,3.4-5.3,3.8
		c-0.6,0.1-1.2,0.1-1.9,0c-1.7-0.6-2.9-1.8-3.7-3.7c-0.4-1-0.7-2-0.9-3.2c-0.1-0.4-0.2-0.8-0.2-1.3l0-0.3c0-0.1-0.1-0.2-0.1-0.2
		c-0.1,0-0.2,0.6-0.4,1.6c-0.2,1.3-1,4-2.5,8.1C84.6,69.5,83.2,71.4,81.6,71.7z"/>
	<path d="M107.3,66c-0.4,0.1-0.7,0-1-0.2c-0.6-0.4-1-1-1.3-1.7c-0.2-0.5-0.3-1-0.4-1.5c-0.1-0.3-0.1-0.6-0.2-0.9
		c-0.5-3.3-0.7-6.4-0.6-9.5c0.1-3.1,0.3-5.2,0.6-6.6c0.2-0.2,0.5-0.3,0.7-0.3c0.2,0,0.4,0,0.6,0c0.2,0,0.3,0.1,0.4,0.1
		c0.1,0.1,0.2,0.1,0.3,0.2l0.1,0.1c0.1,0.2,0.2,0.4,0.2,0.7c0.2,0.8,0.1,2.4-0.1,5c-0.1,1.4-0.2,2.9-0.2,4.6c-0.1,1.7,0,3.4,0.2,5.2
		c0,0.3,0.1,0.6,0.2,0.9l0.1,0.6c0.1,0.5,0.3,0.8,0.5,0.8c0.4-0.1,0.9-1.5,1.4-4.1c0.4-1.9,0.7-3.8,1.1-5.9c0.2-1.4,0.5-2.9,0.9-4.6
		c0.9-3.8,2.1-6,3.4-6.5c0.4-0.1,0.8,0,1.1,0.1c0.4,0.1,0.6,0.3,0.9,0.6c0.8,0.9,1.7,3,2.6,6.3c0.6,2.1,1,3.6,1.4,4.5l0,0.1
		c0.3,0.5,0.4,0.7,0.5,0.6c0.1,0,0.2-0.3,0.3-0.8c0.1-0.4,0.3-1.2,0.5-2.4c0.1-0.6,0.2-1.2,0.4-1.7c0.3-1.1,0.8-1.8,1.5-2l0.4-0.1
		c0.8-0.2,1.5,0,2.1,0.4c0.6,0.5,1.2,1.1,1.7,1.8l0.6,0.8c0.5,0.7,1,1.3,1.6,1.9c0.6,0.5,1.2,0.8,1.9,0.6c1.2-0.3,2.5-1.2,3.9-2.6
		c1.4-1.4,2.8-3,4.1-4.7c1.3-1.8,2.4-3.4,3.2-5c0.2-0.3,0.5-0.4,0.7-0.5c0.2,0,0.3,0,0.5,0c0.6,0.3,0.9,0.7,1,1.3
		c0,0.2,0.1,0.5,0.1,1c0,0.8,0.1,1.8,0,2.8c-0.1,2.4,0,4.2,0.3,5.4c0.1,0.7,0.3,1.2,0.6,1.5c0.1,0.1,0.2,0.1,0.3,0.1
		c0.2,0,0.4-0.3,0.7-0.8c0.3-0.5,0.5-1.2,0.8-2.1c0.3-0.9,0.5-1.6,0.7-2.3c0.5-1.8,1-3.5,1.6-5c0.7-2,1.6-3.2,2.7-3.7l0.2,0
		c0.5-0.1,1-0.1,1.5,0.1c1,0.5,1.8,1.6,2.6,3.4c0.4,1,0.8,1.7,1.1,2.3c0.4,0.7,0.7,1,1.1,1c0,0,0.1,0,0.3-0.1c0.2,0,0.4-0.4,0.7-0.9
		c0.3-0.6,0.6-1.3,0.9-2.1s0.7-1.5,1-2.2c0.5-0.9,1-1.4,1.5-1.5c0.4-0.1,0.8,0,1.2,0.2c0.8,0.4,1.5,1.3,2.2,2.7
		c0.4,0.9,0.8,1.6,1.3,2.2c0.5,1,1.1,1.5,1.8,1.6c0.2,0,0.5,0,0.7-0.1c0.6-0.1,1.3-0.4,2.1-0.9c1.4-0.8,3.1-2.3,5.2-4.4
		c0.3-0.3,0.6-0.5,0.7-0.5c0,0,0.1,0,0.1,0c0.1,0,0.2,0.1,0.2,0.2c0,0.2,0,0.3-0.3,0.5c-1.9,2-3.6,3.6-5.2,4.8
		c-0.8,0.6-1.6,1-2.3,1.3c-0.4,0.2-0.7,0.3-1.1,0.4c-2,0.4-3.7-0.8-5.1-3.8c-0.4-0.8-0.7-1.4-1-1.7c-0.3-0.4-0.6-0.6-0.9-0.6
		c-0.2,0-0.4,0.3-0.7,0.7c-0.2,0.3-0.7,1.4-1.6,3.4c-0.4,1-0.8,1.7-1.2,2.1c-0.2,0.3-0.5,0.5-0.9,0.6l-0.3,0c-1,0-1.8-0.5-2.4-1.6
		c-0.6-0.9-1-1.8-1.2-2.5c-0.5-1.1-0.9-1.9-1.3-2.2c-0.1-0.1-0.3-0.1-0.4-0.1c-0.5,0.1-0.9,0.5-1.3,1.1c-0.6,1-1.2,2.6-1.8,5
		c-0.1,0.4-0.2,0.7-0.3,1.1c-0.2,0.7-0.4,1.4-0.5,2c-0.3,1.1-0.6,2.1-0.9,2.9c-0.5,1.2-1.2,1.9-2,2.1c-0.4,0.1-0.9,0-1.3-0.3
		c-0.7-0.5-1.2-1.1-1.4-1.9c-0.1-0.4-0.2-0.8-0.3-1.2c-0.1-0.4-0.2-0.8-0.2-1.3c-0.1-1.5-0.2-3.1-0.1-4.6l0-1c0-0.3,0-0.5,0-0.7
		c0-0.2-0.1-0.3-0.2-0.2c0,0-0.1,0-0.2,0.1c-0.8,0.8-1.9,2-3.4,3.8c-2.9,3.8-5.1,6-6.5,6.7c-0.4,0.2-0.8,0.4-1.2,0.5
		c-0.3,0.1-0.6,0.1-0.9,0.1c-1-0.1-1.9-0.5-2.6-1.2c-0.7-0.6-1.3-1.3-1.9-2l-0.2-0.3c-0.2-0.3-0.4-0.6-0.6-0.9
		c-0.7-0.9-1.1-1.4-1.4-1.5l-0.2,0c-0.3,0.1-0.5,0.4-0.7,1.1c-0.3,1.2-0.5,2.4-0.6,3.6c-0.1,0.5-0.1,1-0.2,1.5
		c-0.1,0.7-0.3,1.3-0.7,1.7c-0.2,0.2-0.4,0.3-0.7,0.4l-0.2,0c-0.7,0-1.3-0.3-1.7-1c-0.6-0.9-1.3-2.9-2.1-5.7c-0.6-2.1-1.1-3.8-1.6-5
		l-0.1-0.2c-0.3-0.7-0.6-1.1-1-1.2l-0.1,0c-0.3,0.1-0.6,0.4-0.9,1c-0.5,1.1-1.1,2.9-1.6,5.4c-0.2,1.1-0.5,2.6-0.9,4.6
		c-0.7,3.8-1.2,6.2-1.4,7.4c-0.2,1.7-0.8,2.7-1.7,3.2L107.3,66z"/>
	<path d="M184.3,93.8c-0.9,0.2-1.9,0.2-2.8-0.1c-1.2-0.4-2.2-1.2-3.1-2.4c-0.7-1-1.2-2.2-1.5-3.8c-0.4-2.1-0.6-4.7-0.3-7.8
		c0.3-3.5,1.3-7.4,3.1-11.9c3.3-8.3,7.8-16.5,13.5-24.6c-1.2-3.7-2.2-6.3-3.2-8c-0.3-0.5-0.5-0.7-0.6-0.7c-0.3,0.1-0.6,0.6-0.9,1.7
		c-0.2,0.7-0.4,1.5-0.6,2.4c-0.2,0.9-0.5,1.8-0.7,2.6c-0.3,0.9-0.5,1.7-0.8,2.4c-0.3,0.8-0.7,1.4-1.1,2c-0.4,0.6-1,1-1.7,1.3l-0.1,0
		c-0.8,0.2-1.5,0-2.2-0.5c-1-0.8-1.7-1.7-2.1-2.9c-0.2-0.5-0.3-1-0.4-1.5c-0.1-0.7-0.2-1.4-0.3-2.1c-0.1-1.2-0.1-2.2,0-3l0.1-1.3
		c0-0.2,0.1-0.4,0.3-0.5c0.1-0.1,0.2-0.1,0.3-0.1c0.1,0,0.3,0,0.5,0c0.2,0,0.5,0.3,0.8,0.7c0.2,0.5,0.4,1.1,0.6,1.8
		c0.1,0.6,0.2,1.1,0.1,1.5c0,0.5-0.2,0.7-0.4,0.8l0,0c0,0.6,0.1,1.1,0.2,1.7c0.1,0.4,0.3,1,0.5,1.7c0.2,0.7,0.6,1.2,1.1,1.5
		c0.5,0.3,1,0.4,1.5,0.3c0.8-0.2,1.4-0.9,1.9-2.2c0.3-0.8,0.5-1.5,0.6-2c0.3-1,0.5-1.9,0.7-2.7c0.5-1.7,0.8-2.9,0.9-3.8
		c0.1-0.5,0.1-0.9,0.3-1.3s0.3-0.7,0.6-1c0.1-0.1,0.3-0.2,0.5-0.3c0.2,0,0.4,0,0.7,0.1c0.8,0.5,1.7,1.8,2.7,4
		c0.5,1.1,1.1,2.8,1.9,5.3c2.6-3,5.2-5.3,7.9-6.9c0.1-0.1,0.3-0.2,0.4-0.2c0.1,0,0.2,0,0.3,0c0.1,0,0.2,0.1,0.3,0.3
		c0,0.2-0.1,0.4-0.3,0.6c-3.2,2-5.9,4.4-8.3,7.2l0.2,0.7l0.6,2c0.6,2.1,1.2,4.4,1.8,7c0.3,1.2,0.6,2.9,0.9,5
		c0.4,2.1,0.6,4.7,0.6,7.7s-0.2,5.9-0.9,8.7c-1.4,5.5-3.3,9.9-5.7,13.3c-2.4,3.4-4.9,5.6-7.6,6.6C184.9,93.6,184.6,93.7,184.3,93.8z
		 M183.6,91.7c0.3-0.1,0.6-0.2,1-0.3c1.3-0.5,2.7-1.5,4.3-3c1.5-1.6,3-3.6,4.4-6.2c1.4-2.6,2.5-5.6,3.2-9.1
		c0.8-3.9,0.9-8.1,0.5-12.5c-0.3-2.9-0.8-5.7-1.4-8.5c-0.3-1.6-0.8-3.5-1.4-5.6l-0.5-1.9c-2.4,3.1-4.5,6.4-6.6,9.9
		c-2.6,4.6-4.8,9.2-6.5,13.8c-1.8,4.6-2.8,8.4-3,11.6c-0.1,2.4,0,4.4,0.3,6.1c0,0.1,0.2,0.6,0.4,1.6c0.2,0.9,0.6,1.8,1.2,2.7
		c0.4,0.7,1.1,1.2,1.9,1.5C182,91.9,182.7,91.9,183.6,91.7z"/>
	<path d="M212.1,37.8c-0.6,0.1-1-0.1-1.4-0.5c-0.2-0.2-0.3-0.5-0.4-0.8c-0.2-0.7,0.2-1.3,1-1.8c0.3-0.2,0.5-0.3,0.8-0.3
		c0.7-0.1,1.1,0.2,1.3,1.1c0.2,0.7,0,1.4-0.5,1.9C212.6,37.6,212.4,37.7,212.1,37.8z"/>
</g>
</svg>
